<svg width="76" height="76" viewBox="0 0 76 76" fill="none" xmlns="http://www.w3.org/2000/svg">
<g id="SVG" clip-path="url(#clip0_2495_6374)">
<path id="Vector" d="M74 38C74 18.1177 57.8823 2 38 2C18.1178 2 2 18.1177 2 38C2 57.8822 18.1178 74 38 74C57.8823 74 74 57.8822 74 38Z" stroke="#9E9E9E" stroke-opacity="0.4" stroke-width="3.00001" stroke-dasharray="226.2 226.2"/>
<path id="Vector_2" d="M74 38C74 18.1177 57.8823 2 38 2C18.1178 2 2 18.1177 2 38C2 57.8822 18.1178 74 38 74C57.8823 74 74 57.8822 74 38Z" stroke="#A8A8A8" stroke-width="3.00001" stroke-dasharray="226.2 226.2"/>
</g>
<defs>
<clipPath id="clip0_2495_6374">
<rect width="75" height="75" fill="white" transform="matrix(0 -1 1 0 0.5 75.5)"/>
</clipPath>
</defs>
</svg>
