<svg width="60" height="60" viewBox="0 0 60 60" fill="none" xmlns="http://www.w3.org/2000/svg">
<g id="SVG" clip-path="url(#clip0_2495_6369)">
<path id="Vector" d="M58.5 30C58.5 14.2599 45.7401 1.5 30 1.5C14.2599 1.5 1.5 14.2599 1.5 30C1.5 45.7401 14.2599 58.5 30 58.5C45.7401 58.5 58.5 45.7401 58.5 30Z" stroke="#9E9E9E" stroke-opacity="0.4" stroke-width="3" stroke-dasharray="179.07 179.07"/>
<path id="Vector_2" d="M58.5 30C58.5 14.2599 45.7401 1.5 30 1.5C14.2599 1.5 1.5 14.2599 1.5 30C1.5 45.7401 14.2599 58.5 30 58.5C45.7401 58.5 58.5 45.7401 58.5 30Z" stroke="#A8A8A8" stroke-width="3" stroke-dasharray="179.07 179.07"/>
</g>
<defs>
<clipPath id="clip0_2495_6369">
<rect width="60" height="60" fill="white" transform="matrix(0 -1 1 0 0 60)"/>
</clipPath>
</defs>
</svg>
