<svg width="29" height="37" viewBox="0 0 29 37" fill="none" xmlns="http://www.w3.org/2000/svg">
<g id="Group">
<path id="Vector" d="M27.6779 19.5562C24.9215 12.3931 15.1073 12.0068 17.4774 1.59563C17.653 0.823127 16.8278 0.226196 16.1607 0.630002C9.78755 4.38716 5.20522 11.919 9.05016 21.7859C9.36618 22.5936 8.41812 23.3485 7.7334 22.8218C4.55562 20.4165 4.22204 16.9578 4.50295 14.4823C4.60829 13.5694 3.41443 13.1304 2.90528 13.8854C1.71142 15.7113 0.5 18.6608 0.5 23.1027C1.16716 32.9345 9.47152 35.9543 12.4562 36.3405C16.7225 36.8848 21.3399 36.0947 24.6582 33.0574C28.31 29.6689 29.6443 24.2615 27.6779 19.5562ZM11.3852 28.3873C13.9134 27.7728 15.2126 25.9469 15.5637 24.3317C16.1431 21.8211 13.8783 19.3631 15.4057 15.3953C15.9851 18.6784 21.1468 20.7325 21.1468 24.3141C21.2873 28.756 16.4767 32.5658 11.3852 28.3873Z" fill="#FFEFDC"/>
</g>
</svg>
