<svg width="85" height="81" viewBox="0 0 85 81" fill="none" xmlns="http://www.w3.org/2000/svg">
<path id="Vector" d="M80.2778 19.5222V9.38889C80.2778 4.5 76.2778 0.5 71.3889 0.5H9.16672C4.23339 0.5 0.277832 4.5 0.277832 9.38889V71.6111C0.277832 76.5 4.23339 80.5 9.16672 80.5H71.3889C76.2778 80.5 80.2778 76.5 80.2778 71.6111V61.4778C82.9 59.9222 84.7223 57.1222 84.7223 53.8333V27.1667C84.7223 23.8778 82.9 21.0778 80.2778 19.5222ZM75.8334 27.1667V53.8333H44.7223V27.1667H75.8334ZM9.16672 71.6111V9.38889H71.3889V18.2778H44.7223C39.8334 18.2778 35.8334 22.2778 35.8334 27.1667V53.8333C35.8334 58.7222 39.8334 62.7222 44.7223 62.7222H71.3889V71.6111H9.16672Z" fill="#FFEFDC"/>
</svg>
