<svg width="23" height="29" viewBox="0 0 23 29" fill="none" xmlns="http://www.w3.org/2000/svg">
<path id="Vector" d="M13.338 3.3L20.1 10.062V25.7H3.3V3.3H13.338ZM14.5 0.5H3.3C1.76 0.5 0.5 1.76 0.5 3.3V25.7C0.5 27.24 1.76 28.5 3.3 28.5H20.1C21.64 28.5 22.9 27.24 22.9 25.7V8.9L14.5 0.5ZM15.9 13.1H10.3V14.5H14.5C15.27 14.5 15.9 15.13 15.9 15.9V20.1C15.9 20.87 15.27 21.5 14.5 21.5H13.1V22.9H10.3V21.5H7.5V18.7H13.1V17.3H8.9C8.13 17.3 7.5 16.67 7.5 15.9V11.7C7.5 10.93 8.13 10.3 8.9 10.3H10.3V8.9H13.1V10.3H15.9V13.1Z" fill="#E7DC76"/>
</svg>
