<svg width="49" height="48" viewBox="0 0 49 48" fill="none" xmlns="http://www.w3.org/2000/svg">
<g id="Link">
<rect x="0.149902" width="48" height="48" rx="8" fill="#0F0F0F"/>
<path id="Vector" d="M24.5 13C18.704 13 14 17.704 14 23.5C14 29.296 18.704 34 24.5 34C30.296 34 35 29.296 35 23.5C35 17.704 30.296 13 24.5 13ZM19.3235 30.094C19.775 29.149 22.526 28.225 24.5 28.225C26.474 28.225 29.2355 29.149 29.6765 30.094C28.2485 31.228 26.453 31.9 24.5 31.9C22.547 31.9 20.7515 31.228 19.3235 30.094ZM31.178 28.5715C29.6765 26.7445 26.033 26.125 24.5 26.125C22.967 26.125 19.3235 26.7445 17.822 28.5715C16.751 27.1645 16.1 25.411 16.1 23.5C16.1 18.8695 19.8695 15.1 24.5 15.1C29.1305 15.1 32.9 18.8695 32.9 23.5C32.9 25.411 32.249 27.1645 31.178 28.5715ZM24.5 17.2C22.463 17.2 20.825 18.838 20.825 20.875C20.825 22.912 22.463 24.55 24.5 24.55C26.537 24.55 28.175 22.912 28.175 20.875C28.175 18.838 26.537 17.2 24.5 17.2ZM24.5 22.45C23.6285 22.45 22.925 21.7465 22.925 20.875C22.925 20.0035 23.6285 19.3 24.5 19.3C25.3715 19.3 26.075 20.0035 26.075 20.875C26.075 21.7465 25.3715 22.45 24.5 22.45Z" fill="#8BD796"/>
</g>
</svg>
