<svg width="49" height="48" viewBox="0 0 49 48" fill="none" xmlns="http://www.w3.org/2000/svg">
<g id="Link">
<rect x="0.149902" width="48" height="48" rx="8" fill="#0F0F0F"/>
<path id="Vector" d="M29.2775 24.55C30.065 24.55 30.758 24.1195 31.115 23.4685L34.874 16.654C35.2625 15.961 34.7585 15.1 33.9605 15.1H18.4205L17.4335 13H14V15.1H16.1L19.88 23.0695L18.4625 25.6315C17.696 27.0385 18.704 28.75 20.3 28.75H32.9V26.65H20.3L21.455 24.55H29.2775ZM19.418 17.2H32.1755L29.2775 22.45H21.9065L19.418 17.2ZM20.3 29.8C19.145 29.8 18.2105 30.745 18.2105 31.9C18.2105 33.055 19.145 34 20.3 34C21.455 34 22.4 33.055 22.4 31.9C22.4 30.745 21.455 29.8 20.3 29.8ZM30.8 29.8C29.645 29.8 28.7105 30.745 28.7105 31.9C28.7105 33.055 29.645 34 30.8 34C31.955 34 32.9 33.055 32.9 31.9C32.9 30.745 31.955 29.8 30.8 29.8Z" fill="#8BD796"/>
</g>
</svg>
