<svg width="24" height="33" viewBox="0 0 24 33" fill="none" xmlns="http://www.w3.org/2000/svg">
<path id="Vector" d="M13.4097 23.0113H13.3613C18.9932 22.3659 23.3664 17.5893 23.3664 11.796C23.3664 5.55093 18.3154 0.5 12.0703 0.5C5.82526 0.5 0.774332 5.55093 0.774332 11.796C0.774332 17.3956 4.8409 22.027 10.1823 22.9145V29.2726H0.5V32.5H23.092V29.2726H13.4097V23.0113ZM4.00176 11.796C4.00176 7.34216 7.61649 3.72743 12.0703 3.72743C16.5242 3.72743 20.1389 7.34216 20.1389 11.796C20.1389 16.2499 16.5242 19.8646 12.0703 19.8646C7.61649 19.8646 4.00176 16.2499 4.00176 11.796Z" fill="#FF8F8F" fill-opacity="0.5"/>
</svg>
