<svg width="39" height="33" viewBox="0 0 39 33" fill="none" xmlns="http://www.w3.org/2000/svg">
<path id="Vector" d="M29.277 26.0731C26.687 26.0731 25.0564 26.8789 23.6175 27.6079C22.3705 28.241 21.3537 28.759 19.6847 28.759C17.958 28.759 16.9988 28.2794 15.7518 27.6079C14.3129 26.8789 12.7398 26.0731 10.0923 26.0731C7.44484 26.0731 5.8717 26.8789 4.43285 27.6079C3.18585 28.241 2.18825 28.759 0.5 28.759V32.5C3.08993 32.5 4.72062 31.6942 6.15947 30.9652C7.40647 30.3321 8.40408 29.8141 10.0923 29.8141C11.7806 29.8141 12.7782 30.2938 14.0252 30.9652C15.464 31.6942 17.0372 32.5 19.6847 32.5C22.3321 32.5 23.9053 31.6942 25.3441 30.9652C26.5911 30.3321 27.6079 29.8141 29.277 29.8141C31.0036 29.8141 31.9628 30.2938 33.2098 30.9652C34.6487 31.6942 36.241 32.5 38.8693 32.5V28.759C37.1427 28.759 36.1835 28.2794 34.9365 27.6079C33.4976 26.8789 31.8669 26.0731 29.277 26.0731ZM29.277 17.536C26.687 17.536 25.0564 18.3609 23.6175 19.0707C22.3705 19.6847 21.3537 20.2218 19.6847 20.2218C17.958 20.2218 16.9988 19.7422 15.7518 19.0707C14.3129 18.3417 12.7398 17.536 10.0923 17.536C7.44484 17.536 5.8717 18.3609 4.43285 19.0707C3.18585 19.6847 2.18825 20.2218 0.5 20.2218V23.9628C3.08993 23.9628 4.72062 23.1379 6.15947 22.4281C7.40647 21.7566 8.36571 21.277 10.0923 21.277C11.8189 21.277 12.7782 21.7566 14.0252 22.4281C15.464 23.1571 17.0372 23.9628 19.6847 23.9628C22.3321 23.9628 23.9053 23.1379 25.3441 22.4281C26.5911 21.7566 27.5504 21.277 29.277 21.277C31.0036 21.277 31.9628 21.7566 33.2098 22.4281C34.6487 23.1571 36.241 23.9628 38.8693 23.9628V20.2218C37.1427 20.2218 36.1835 19.7422 34.9365 19.0707C33.4976 18.3417 31.8669 17.536 29.277 17.536ZM34.9365 2.03477C33.4976 1.30576 31.9053 0.5 29.277 0.5C26.6487 0.5 25.0564 1.30576 23.6175 2.03477C22.3705 2.64868 21.3537 3.18585 19.6847 3.18585C17.958 3.18585 16.9988 2.70623 15.7518 2.03477C14.3129 1.32494 12.7398 0.5 10.0923 0.5C7.44484 0.5 5.8717 1.30576 4.43285 2.03477C3.18585 2.66787 2.18825 3.18585 0.5 3.18585V6.88849C3.08993 6.88849 4.72062 6.06355 6.15947 5.35372C7.40647 4.72062 8.40408 4.20264 10.0923 4.20264C11.7806 4.20264 12.7782 4.68225 14.0252 5.35372C15.464 6.08273 17.0372 6.88849 19.6847 6.88849C22.3321 6.88849 23.9053 6.06355 25.3441 5.35372C26.5911 4.73981 27.6079 4.20264 29.277 4.20264C31.0036 4.20264 31.9628 4.68225 33.2098 5.35372C34.6487 6.08273 36.241 6.88849 38.8693 6.88849V3.14748C37.1427 3.14748 36.1835 2.66787 34.9365 2.03477ZM29.277 8.9988C26.687 8.9988 25.0564 9.82374 23.6175 10.5336C22.3705 11.205 21.4113 11.6847 19.6847 11.6847C17.958 11.6847 16.9988 11.205 15.7518 10.5336C14.3129 9.80456 12.7398 8.9988 10.0923 8.9988C7.44484 8.9988 5.8717 9.82374 4.43285 10.5336C3.18585 11.205 2.22662 11.6847 0.5 11.6847V15.4257C3.08993 15.4257 4.72062 14.6007 6.15947 13.8909C7.40647 13.277 8.42326 12.7398 10.0923 12.7398C11.7614 12.7398 12.7782 13.2194 14.0252 13.8909C15.464 14.6199 17.0372 15.4257 19.6847 15.4257C22.3321 15.4257 23.9053 14.6007 25.3441 13.8909C26.5911 13.277 27.6079 12.7398 29.277 12.7398C31.0036 12.7398 31.9628 13.2194 33.2098 13.8909C34.6487 14.6199 36.241 15.4257 38.8693 15.4257V11.6847C37.1427 11.6847 36.1835 11.205 34.9365 10.5336C33.4976 9.80456 31.8669 8.9988 29.277 8.9988Z" fill="#FF8F8F"/>
</svg>
