<svg width="30" height="30" viewBox="0 0 30 30" fill="none" xmlns="http://www.w3.org/2000/svg">
<g id="logo.svg">
<g id="Clip path group">
<mask id="mask0_1074_4737" style="mask-type:luminance" maskUnits="userSpaceOnUse" x="0" y="0" width="30" height="30">
<g id="clip0_10918_44636">
<path id="Vector" d="M29.2879 0.504883H0.416626V29.4962H29.2879V0.504883Z" fill="white"/>
</g>
</mask>
<g mask="url(#mask0_1074_4737)">
<g id="Group">
<g id="Mask group">
<mask id="mask1_1074_4737" style="mask-type:alpha" maskUnits="userSpaceOnUse" x="-5" y="3" width="31" height="31">
<g id="Group_2">
<path id="Vector_2" fill-rule="evenodd" clip-rule="evenodd" d="M20.8781 20.6687C23.5218 19.0877 25.292 16.1967 25.292 12.8923C25.292 7.8917 21.2382 3.83789 16.2375 3.83789C12.708 3.83789 9.65017 5.8574 8.1565 8.80392L-4.58423 21.5447L7.70901 33.8379L20.8781 20.6687Z" fill="#795E5E"/>
</g>
</mask>
<g mask="url(#mask1_1074_4737)">
<g id="Group_3">
<path id="Vector_3" fill-rule="evenodd" clip-rule="evenodd" d="M16.0862 3.18257L16.0909 3.17773C14.6636 3.20448 13.2849 3.58903 12.0993 4.34107C11.2101 5.28649 10.3399 6.25097 9.49786 7.24187C8.58107 8.31828 7.69673 9.42398 6.85548 10.5664C6.54249 10.9955 6.23414 11.4308 5.94304 11.8834C6.3956 11.5922 6.83094 11.2839 7.26004 10.9709C7.76628 10.5972 8.26605 10.2152 8.75861 9.82615C11.1659 7.92682 13.4214 5.8472 15.5881 3.68968C15.7544 3.52149 15.9199 3.35243 16.0862 3.18257ZM15.0189 8.8329C16.6248 7.20881 18.2159 5.56513 19.7619 3.88119C19.1164 3.61781 18.4538 3.42773 17.7904 3.31291C16.3594 4.64583 14.9559 6.00767 13.5675 7.38153C11.9701 8.99348 10.3884 10.626 8.85178 12.2987C6.62344 14.7211 4.48537 17.2275 2.51964 19.8807C4.9166 18.1042 7.19506 16.1887 9.39778 14.1909C11.3175 12.4526 13.1816 10.6538 15.0189 8.8329ZM22.5183 5.55883C20.2518 8.0684 17.9014 10.5004 15.5227 12.9009C14.0958 14.317 12.6579 15.7222 11.199 17.1049C8.01253 20.1262 4.72683 23.0437 1.23962 25.7327C3.99008 22.1658 6.97975 18.8097 10.0752 15.5546C11.3919 14.1708 12.7266 12.8052 14.0714 11.4496C16.4124 9.13032 18.7839 6.83678 21.2268 4.62253C21.6733 4.89622 22.1054 5.20788 22.5183 5.55883ZM24.651 8.01593C24.3742 7.57257 24.0585 7.14437 23.7054 6.73563C21.1942 9.00365 18.7598 11.3564 16.3577 13.7367C14.9409 15.1645 13.534 16.604 12.1498 18.0644C9.12919 21.2501 6.21425 24.5352 3.52597 28.0198C7.08635 25.274 10.4379 22.2908 13.6874 19.2009C15.0767 17.8787 16.4479 16.5384 17.8091 15.1881C20.1339 12.8415 22.4321 10.4652 24.651 8.01593ZM25.4028 9.47148C25.6714 10.1081 25.8678 10.7626 25.9905 11.4182C24.6435 12.8667 23.2642 14.286 21.8745 15.6919C20.2468 17.3052 18.5975 18.9018 16.9072 20.4542C14.5006 22.6667 12.01 24.7872 9.37528 26.7398C11.1432 24.3532 13.0502 22.0852 15.0392 19.8912C16.7845 17.9609 18.5928 16.0873 20.4232 14.2406C22.056 12.6259 23.7084 11.0262 25.4028 9.47148ZM25.1642 16.92C25.8176 15.7658 26.143 14.4517 26.1475 13.0957C25.9521 13.2856 25.7577 13.4764 25.5649 13.6673C23.3828 15.8585 21.2812 18.1397 19.3644 20.5772C18.9973 21.0441 18.6373 21.5166 18.2837 21.9954C17.9699 22.4253 17.6624 22.8598 17.3712 23.3124C17.8238 23.0213 18.2591 22.7129 18.6882 22.4C19.7379 21.6261 20.758 20.8164 21.7525 19.9779C22.9217 18.9937 24.0561 17.97 25.1642 16.92Z" fill="url(#paint0_linear_1074_4737)"/>
</g>
</g>
</g>
</g>
</g>
</g>
</g>
<defs>
<linearGradient id="paint0_linear_1074_4737" x1="21.3035" y1="58.5715" x2="51.2246" y2="22.9195" gradientUnits="userSpaceOnUse">
<stop stop-color="#FF2189"/>
<stop offset="1" stop-color="#FF9D00"/>
</linearGradient>
</defs>
</svg>
