<svg width="33" height="33" viewBox="0 0 33 33" fill="none" xmlns="http://www.w3.org/2000/svg">
<path id="Vector" d="M14.7222 11.1667H18.2778V14.7222H14.7222V11.1667ZM11.1667 14.7222H14.7222V18.2778H11.1667V14.7222ZM18.2778 14.7222H21.8333V18.2778H18.2778V14.7222ZM21.8333 11.1667H25.3889V14.7222H21.8333V11.1667ZM7.61111 11.1667H11.1667V14.7222H7.61111V11.1667ZM28.9444 0.5H4.05556C2.1 0.5 0.5 2.1 0.5 4.05556V28.9444C0.5 30.9 2.1 32.5 4.05556 32.5H28.9444C30.9 32.5 32.5 30.9 32.5 28.9444V4.05556C32.5 2.1 30.9 0.5 28.9444 0.5ZM11.1667 27.1667H7.61111V23.6111H11.1667V27.1667ZM18.2778 27.1667H14.7222V23.6111H18.2778V27.1667ZM25.3889 27.1667H21.8333V23.6111H25.3889V27.1667ZM28.9444 14.7222H25.3889V18.2778H28.9444V21.8333H25.3889V18.2778H21.8333V21.8333H18.2778V18.2778H14.7222V21.8333H11.1667V18.2778H7.61111V21.8333H4.05556V18.2778H7.61111V14.7222H4.05556V4.05556H28.9444V14.7222Z" fill="#D6776A"/>
</svg>
