<svg width="40" height="40" viewBox="0 0 40 40" fill="none" xmlns="http://www.w3.org/2000/svg">
<g id="sol.edc21f75bbba163ee8d1.svg" clip-path="url(#clip0_1074_4513)">
<path id="Vector" d="M28.2521 14.9205C28.1121 15.0605 27.9241 15.1405 27.7281 15.1405H9.14809C8.49209 15.1405 8.16009 14.3405 8.61609 13.8645L11.6641 10.7085C11.8041 10.5645 11.9961 10.4805 12.1961 10.4805H30.8441C31.5041 10.4805 31.8361 11.2885 31.3681 11.7645L28.2521 14.9205ZM28.2521 29.0245C28.1121 29.1605 27.9241 29.2405 27.7281 29.2405H9.14809C8.49209 29.2405 8.16009 28.4605 8.61609 27.9965L11.6641 24.9165C11.8041 24.7765 11.9961 24.6965 12.1961 24.6965H30.8441C31.5041 24.6965 31.8361 25.4845 31.3681 25.9485L28.2521 29.0245ZM27.7281 17.5885C27.9241 17.5885 28.1121 17.6645 28.2521 17.8045L31.3681 20.8845C31.8361 21.3445 31.5041 22.1365 30.8441 22.1365H12.1961C11.9961 22.1365 11.8041 22.0565 11.6641 21.9165L8.61609 18.8365C8.15609 18.3725 8.48809 17.5925 9.14809 17.5925L27.7281 17.5885Z" fill="#00FFAD"/>
<g id="Group">
<g id="Group_2">
<g id="Group_3">
<path id="SVGID_1_" d="M20 0C31.044 0 40 8.956 40 20C40 31.044 31.044 40 20 40C8.956 40 0 31.044 0 20C0 8.956 8.956 0 20 0Z" fill="black"/>
</g>
</g>
</g>
<path id="Vector_2" fill-rule="evenodd" clip-rule="evenodd" d="M9.24811 18.0925H27.7561C27.9881 18.0925 28.2081 18.1845 28.3681 18.3485L31.2961 21.2965C31.8361 21.8405 31.4521 22.7685 30.6841 22.7685H12.1761C11.9441 22.7685 11.7241 22.6765 11.5641 22.5125L8.63611 19.5645C8.09211 19.0205 8.48011 18.0925 9.24811 18.0925ZM8.63611 14.1845L11.5641 11.2365C11.7281 11.0725 11.9481 10.9805 12.1761 10.9805H30.6801C31.4481 10.9805 31.8361 11.9085 31.2921 12.4525L28.3681 15.4005C28.2041 15.5645 27.9841 15.6565 27.7561 15.6565H9.24811C8.48011 15.6565 8.09211 14.7285 8.63611 14.1845ZM31.2921 26.6765L28.3641 29.6245C28.2001 29.7885 27.9801 29.8805 27.7521 29.8805H9.24811C8.48011 29.8805 8.09211 28.9525 8.63611 28.4085L11.5641 25.4605C11.7281 25.2965 11.9481 25.2045 12.1761 25.2045H30.6801C31.4481 25.2045 31.8361 26.1325 31.2921 26.6765Z" fill="url(#paint0_linear_1074_4513)"/>
</g>
<defs>
<linearGradient id="paint0_linear_1074_4513" x1="9.70091" y1="30.6937" x2="30.2273" y2="10.1673" gradientUnits="userSpaceOnUse">
<stop stop-color="#CB4EE8"/>
<stop offset="1" stop-color="#10F4B1"/>
</linearGradient>
<clipPath id="clip0_1074_4513">
<rect width="40" height="40" fill="white"/>
</clipPath>
</defs>
</svg>
