<svg width="72" height="90" viewBox="0 0 72 90" fill="none" xmlns="http://www.w3.org/2000/svg">
<g id="Group">
<path id="Vector" d="M68.8393 47.6406C61.9483 29.7326 37.4127 28.767 43.3381 2.73906C43.777 0.807817 41.7141 -0.68451 40.0462 0.325006C24.1134 9.71789 12.6576 28.5476 22.2699 53.2149C23.06 55.2339 20.6898 57.1213 18.978 55.8045C11.0336 49.7913 10.1996 41.1446 10.9019 34.9558C11.1653 32.6734 8.1806 31.5761 6.90773 33.4635C3.92308 38.0282 0.894531 45.4021 0.894531 56.5068C2.56243 81.0863 23.3233 88.6357 30.785 89.6013C41.4507 90.962 52.9943 88.9868 61.2899 81.3935C70.4195 72.9224 73.7552 59.4036 68.8393 47.6406ZM28.1076 69.7182C34.428 68.182 37.676 63.6173 38.5539 59.5792C40.0023 53.3026 34.3402 47.1578 38.1588 37.2382C39.6073 45.446 52.5115 50.5813 52.5115 59.5353C52.8627 70.64 40.8363 80.1645 28.1076 69.7182Z" fill="#D6776A"/>
</g>
</svg>
