<svg width="96" height="96" viewBox="0 0 96 96" fill="none" xmlns="http://www.w3.org/2000/svg">
<g id="Nature" clip-path="url(#clip0_1319_8222)">
<path id="Vector" d="M52 64.4797H51.88C65.84 62.8797 76.68 51.0397 76.68 36.6797C76.68 21.1997 64.16 8.67969 48.68 8.67969C33.2 8.67969 20.68 21.1997 20.68 36.6797C20.68 50.5597 30.76 62.0397 44 64.2397V79.9997H20V87.9997H76V79.9997H52V64.4797ZM28.68 36.6797C28.68 25.6397 37.64 16.6797 48.68 16.6797C59.72 16.6797 68.68 25.6397 68.68 36.6797C68.68 47.7197 59.72 56.6797 48.68 56.6797C37.64 56.6797 28.68 47.7197 28.68 36.6797Z" fill="#D6776A" />
</g>
<defs>
<clipPath id="clip0_1319_8222">
<rect width="96" height="96" fill="white"/>
</clipPath>
</defs>
</svg>
