<svg width="96" height="96" viewBox="0 0 96 96" fill="none" xmlns="http://www.w3.org/2000/svg">
<g id="Hot tub" clip-path="url(#clip0_1319_8210)">
<path id="Vector" d="M28 32C32.4183 32 36 28.4183 36 24C36 19.5817 32.4183 16 28 16C23.5817 16 20 19.5817 20 24C20 28.4183 23.5817 32 28 32Z" fill="#D6776A" />
<path id="Vector_2" d="M51.3421 54.6316C49.8737 53.5895 48.5474 52.4526 47.4579 51.2211L40.8263 43.8789C39.9263 42.8842 38.7895 42.0789 37.5579 41.5105C36.1842 40.8474 34.6211 40.4211 33.0105 40.4211H32.8684C26.9947 40.4211 22.2105 45.2053 22.2105 51.0789V54.6316H8V92.5263C8 97.7368 12.2632 102 17.4737 102H93.2632C98.4737 102 102.737 97.7368 102.737 92.5263V54.6316H51.3421ZM31.6842 92.5263H22.2105V64.1053H31.6842V92.5263ZM50.6316 92.5263H41.1579V64.1053H50.6316V92.5263ZM69.5789 92.5263H60.1053V64.1053H69.5789V92.5263ZM88.5263 92.5263H79.0526V64.1053H88.5263V92.5263ZM81.0421 31.9421C83.7421 34.8789 84.9263 38.6211 84.2158 42.3632L83.6947 45.1579H92.7421L93.0263 43.1211C94.0211 36.6789 91.7474 30.2842 86.8684 25.5474L86.5368 25.2158C83.8368 22.2789 82.6526 18.5368 83.3632 14.7947L83.7895 12H74.8368L74.5526 14.0368C73.6053 20.4789 75.8316 26.8737 80.7105 31.6579L81.0421 31.9421ZM62.0947 31.9421C64.7947 34.8789 65.979 38.6211 65.2684 42.3632L64.7474 45.1579H73.7947L74.0789 43.1211C75.0737 36.6789 72.8 30.2842 67.9211 25.5474L67.5895 25.2158C64.8895 22.2789 63.7053 18.5368 64.4158 14.7947L64.8421 12H55.8895L55.6053 14.0368C54.6579 20.4789 56.8842 26.8737 61.7632 31.6579L62.0947 31.9421Z" fill="#D6776A" />
</g>
<defs>
<clipPath id="clip0_1319_8210">
<rect width="96" height="96" fill="white"/>
</clipPath>
</defs>
</svg>
