<svg width="96" height="96" viewBox="0 0 96 96" fill="none" xmlns="http://www.w3.org/2000/svg">
<g id="Lock" clip-path="url(#clip0_1319_8214)">
<path id="Vector" d="M74 34H69.7143V25.4286C69.7143 13.6 60.1143 4 48.2857 4C36.4571 4 26.8571 13.6 26.8571 25.4286V34H22.5714C17.8571 34 14 37.8571 14 42.5714V85.4286C14 90.1429 17.8571 94 22.5714 94H74C78.7143 94 82.5714 90.1429 82.5714 85.4286V42.5714C82.5714 37.8571 78.7143 34 74 34ZM35.4286 25.4286C35.4286 18.3143 41.1714 12.5714 48.2857 12.5714C55.4 12.5714 61.1429 18.3143 61.1429 25.4286V34H35.4286V25.4286ZM74 85.4286H22.5714V42.5714H74V85.4286ZM48.2857 72.5714C53 72.5714 56.8571 68.7143 56.8571 64C56.8571 59.2857 53 55.4286 48.2857 55.4286C43.5714 55.4286 39.7143 59.2857 39.7143 64C39.7143 68.7143 43.5714 72.5714 48.2857 72.5714Z" fill="#D6776A" />
</g>
<defs>
<clipPath id="clip0_1319_8214">
<rect width="96" height="96" fill="white"/>
</clipPath>
</defs>
</svg>
