<svg width="37" height="37" viewBox="0 0 37 37" fill="none" xmlns="http://www.w3.org/2000/svg">
<path id="Vector" d="M16.5 12.5H20.5V16.5H16.5V12.5ZM12.5 16.5H16.5V20.5H12.5V16.5ZM20.5 16.5H24.5V20.5H20.5V16.5ZM24.5 12.5H28.5V16.5H24.5V12.5ZM8.5 12.5H12.5V16.5H8.5V12.5ZM32.5 0.5H4.5C2.3 0.5 0.5 2.3 0.5 4.5V32.5C0.5 34.7 2.3 36.5 4.5 36.5H32.5C34.7 36.5 36.5 34.7 36.5 32.5V4.5C36.5 2.3 34.7 0.5 32.5 0.5ZM12.5 30.5H8.5V26.5H12.5V30.5ZM20.5 30.5H16.5V26.5H20.5V30.5ZM28.5 30.5H24.5V26.5H28.5V30.5ZM32.5 16.5H28.5V20.5H32.5V24.5H28.5V20.5H24.5V24.5H20.5V20.5H16.5V24.5H12.5V20.5H8.5V24.5H4.5V20.5H8.5V16.5H4.5V4.5H32.5V16.5Z" fill="#D6776A"/>
</svg>
