<svg width="23" height="29" viewBox="0 0 23 29" fill="none" xmlns="http://www.w3.org/2000/svg">
<path id="Vector" d="M12.838 3.3L19.6 10.062V25.7H2.8V3.3H12.838ZM14 0.5H2.8C1.26 0.5 0 1.76 0 3.3V25.7C0 27.24 1.26 28.5 2.8 28.5H19.6C21.14 28.5 22.4 27.24 22.4 25.7V8.9L14 0.5ZM15.4 13.1H9.8V14.5H14C14.77 14.5 15.4 15.13 15.4 15.9V20.1C15.4 20.87 14.77 21.5 14 21.5H12.6V22.9H9.8V21.5H7V18.7H12.6V17.3H8.4C7.63 17.3 7 16.67 7 15.9V11.7C7 10.93 7.63 10.3 8.4 10.3H9.8V8.9H12.6V10.3H15.4V13.1Z" fill="#D6776A"/>
</svg>
