<svg width="36" height="37" viewBox="0 0 36 37" fill="none" xmlns="http://www.w3.org/2000/svg">
<path id="Vector" d="M17.6429 14.2143H21.0714V9.07143H26.2143V5.64286H21.0714V0.5H17.6429V5.64286H12.5V9.07143H17.6429V14.2143ZM10.7857 29.6429C8.9 29.6429 7.37429 31.1857 7.37429 33.0714C7.37429 34.9571 8.9 36.5 10.7857 36.5C12.6714 36.5 14.2143 34.9571 14.2143 33.0714C14.2143 31.1857 12.6714 29.6429 10.7857 29.6429ZM27.9286 29.6429C26.0429 29.6429 24.5171 31.1857 24.5171 33.0714C24.5171 34.9571 26.0429 36.5 27.9286 36.5C29.8143 36.5 31.3571 34.9571 31.3571 33.0714C31.3571 31.1857 29.8143 29.6429 27.9286 29.6429ZM12.6714 21.0714H25.4429C26.7286 21.0714 27.86 20.3686 28.4429 19.3057L35.06 7.28857L32.0771 5.64286L25.4429 17.6429H13.4086L6.10571 2.21429H0.5V5.64286H3.92857L10.1 18.6543L7.78572 22.8371C6.53429 25.1343 8.18 27.9286 10.7857 27.9286H31.3571V24.5H10.7857L12.6714 21.0714Z" fill="#D6776A"/>
</svg>
