<svg width="20" height="24" viewBox="0 0 20 24" fill="none" xmlns="http://www.w3.org/2000/svg">
<g id="SVG" clip-path="url(#clip0_2427_4541)">
<path id="Vector" d="M16.1356 5.8631C14.8866 5.27764 13.5651 4.86128 12.2061 4.625C12.0205 4.96546 11.8524 5.31512 11.7023 5.67262C10.2589 5.45262 8.79045 5.45262 7.34703 5.67262C7.19576 5.31468 7.02568 4.96499 6.83751 4.625C5.47743 4.86075 4.15494 5.27713 2.90513 5.8631C0.704762 9.12356 -0.263478 13.0607 0.1737 16.9698C1.59458 18.0438 3.19502 18.8567 4.90037 19.3707C5.29084 18.8336 5.63656 18.266 5.93275 17.6707C5.36868 17.4562 4.82493 17.1916 4.30799 16.8802C4.44418 16.7793 4.57751 16.6736 4.70608 16.566C6.2092 17.2895 7.85598 17.6652 9.52418 17.6652C11.1924 17.6652 12.8392 17.2895 14.3423 16.566C14.4727 16.6736 14.6061 16.7793 14.7404 16.8802C14.2223 17.1926 13.6775 17.4574 13.1118 17.6726C13.408 18.267 13.7533 18.8357 14.1442 19.3726C15.8831 18.835 17.5151 17.9987 18.967 16.9012C19.3673 13.0021 18.3633 9.08808 16.1356 5.8631ZM6.36037 14.6793C5.87612 14.6448 5.42488 14.4212 5.10413 14.0568C4.78337 13.6923 4.61884 13.2164 4.64608 12.7317C4.61554 12.246 4.77885 11.768 5.10021 11.4025C5.42158 11.0371 5.87475 10.814 6.36037 10.7821C6.6013 10.7965 6.837 10.8585 7.05385 10.9645C7.2707 11.0705 7.46441 11.2184 7.6238 11.3996C7.78318 11.5809 7.90508 11.7919 7.98247 12.0206C8.05985 12.2492 8.09118 12.4909 8.07465 12.7317C8.10467 13.217 7.94112 13.6945 7.61981 14.0596C7.2985 14.4246 6.84563 14.6475 6.36037 14.6793ZM12.688 14.6793C12.2036 14.645 11.7523 14.4215 11.4315 14.057C11.1107 13.6925 10.9462 13.2164 10.9737 12.7317C10.9432 12.246 11.1065 11.768 11.4278 11.4025C11.7492 11.0371 12.2024 10.814 12.688 10.7821C12.929 10.7964 13.1647 10.8583 13.3816 10.9643C13.5985 11.0702 13.7923 11.2181 13.9517 11.3994C14.1111 11.5807 14.233 11.7917 14.3104 12.0204C14.3877 12.2491 14.4189 12.4908 14.4023 12.7317C14.4323 13.217 14.2687 13.6945 13.9474 14.0596C13.6261 14.4246 13.1732 14.6475 12.688 14.6793Z" fill="#A8A8A8"/>
</g>
<defs>
<clipPath id="clip0_2427_4541">
<rect width="20" height="24" fill="white" transform="translate(0.000488281)"/>
</clipPath>
</defs>
</svg>
