<svg width="40" height="40" viewBox="0 0 40 40" fill="none" xmlns="http://www.w3.org/2000/svg">
<g id="Button">
<g id="Group">
<g id="Group_2">
<path id="Vector" d="M27.4711 13.4118C26.557 13.1235 25.5523 13 24.5887 13C22.9828 13 21.2534 13.3294 20.0593 14.2353C18.8652 13.3294 17.1358 13 15.5299 13C13.924 13 12.1946 13.3294 11.0005 14.2353V26.3C11.0005 26.5059 11.2064 26.7118 11.4123 26.7118C11.4946 26.7118 11.5358 26.6706 11.6181 26.6706C12.7299 26.1353 14.3358 25.7647 15.5299 25.7647C17.1358 25.7647 18.8652 26.0941 20.0593 27C21.1711 26.3 23.1887 25.7647 24.5887 25.7647C25.9475 25.7647 27.3475 26.0118 28.5005 26.6294C28.5828 26.6706 28.624 26.6706 28.7064 26.6706C28.9123 26.6706 29.1181 26.4647 29.1181 26.2588V14.2353C28.624 13.8647 28.0887 13.6176 27.4711 13.4118ZM27.4711 24.5294C26.5652 24.2412 25.577 24.1176 24.5887 24.1176C23.1887 24.1176 21.1711 24.6529 20.0593 25.3529V15.8824C21.1711 15.1824 23.1887 14.6471 24.5887 14.6471C25.577 14.6471 26.5652 14.7706 27.4711 15.0588V24.5294Z" fill="#A8A8A8"/>
<g id="Group_3">
<path id="Vector_2" d="M24.5882 17.9423C25.3129 17.9423 26.0129 18.0164 26.647 18.1564V16.9047C25.9964 16.7811 25.2964 16.707 24.5882 16.707C23.1882 16.707 21.92 16.9459 20.8823 17.3906V18.7576C21.8129 18.2306 23.1059 17.9423 24.5882 17.9423Z" fill="#A8A8A8"/>
<path id="Vector_3" d="M20.8823 19.581V20.948C21.8129 20.421 23.1059 20.1328 24.5882 20.1328C25.3129 20.1328 26.0129 20.2069 26.647 20.3469V19.0951C25.9964 18.9716 25.2964 18.8975 24.5882 18.8975C23.1882 18.8975 21.92 19.1445 20.8823 19.581Z" fill="#A8A8A8"/>
<path id="Vector_4" d="M24.5882 21.0967C23.1882 21.0967 21.92 21.3355 20.8823 21.7802V23.1473C21.8129 22.6202 23.1059 22.332 24.5882 22.332C25.3129 22.332 26.0129 22.4061 26.647 22.5461V21.2943C25.9964 21.1626 25.2964 21.0967 24.5882 21.0967Z" fill="#A8A8A8"/>
</g>
</g>
</g>
</g>
</svg>
