<svg width="40" height="40" viewBox="0 0 40 40" fill="none" xmlns="http://www.w3.org/2000/svg">
<g id="Link">
<path id="Vector" d="M26.4434 13.0083C26.1849 12.9809 25.9039 13.0212 25.6215 13.1329C25.2715 13.2705 19.7869 15.5777 14.6743 17.7299L12.9849 18.4409C12.3308 18.7061 12.0005 19.1375 12.0005 19.7185C12.0005 20.1253 12.1727 20.6771 12.994 21.0022L15.8456 22.1447C16.0921 22.8844 16.6648 24.6019 16.8087 25.0585C16.8943 25.3292 17.1104 26.0111 17.6564 26.1705C17.7684 26.2086 17.8853 26.2283 18.0043 26.2283C18.3489 26.2283 18.597 26.0679 18.7183 25.9745L20.5307 24.4417L22.732 26.4774C22.8168 26.5637 23.2656 27 23.8684 27C24.6205 27 25.1911 26.3739 25.3101 25.7679C25.3746 25.4358 27.4977 14.7781 27.4977 14.7797C27.6883 13.9248 27.3456 13.4814 27.1255 13.2924C26.9369 13.131 26.7019 13.0357 26.4434 13.0083ZM25.9284 14.6885C25.6352 16.1586 24.0366 24.1829 23.7939 25.3395L20.5763 22.3634L18.3932 24.2123L18.9979 21.8469C18.9979 21.8469 23.169 17.6248 23.4202 17.379C23.6224 17.1822 23.6648 17.1132 23.6648 17.0448C23.6648 16.9538 23.618 16.8883 23.5098 16.8883C23.4126 16.8883 23.2806 16.9815 23.2106 17.025C22.3212 17.5795 18.5344 19.7369 16.6705 20.7972L13.9663 19.717L15.2789 19.1656C18.6228 17.7577 24.5781 15.2501 25.9284 14.6885Z" fill="#A8A8A8"/>
</g>
</svg>
