<svg width="48" height="48" viewBox="0 0 48 48" fill="none" xmlns="http://www.w3.org/2000/svg">
<g id="div.flex">
<rect width="48" height="48" rx="8" fill="#0F0F0F"/>
<g id="Group">
<g id="Group_2">
<path id="Vector" d="M23.8182 12L14 16.3636V22.9091C14 28.9636 18.1891 34.6255 23.8182 36C29.4473 34.6255 33.6364 28.9636 33.6364 22.9091V16.3636L23.8182 12ZM31.4545 22.9091C31.4545 24.9273 30.8982 26.8909 29.9491 28.5927L28.3673 27.0109C29.7745 24.8945 29.5345 22.0145 27.6691 20.1491C25.5418 18.0218 22.0836 18.0218 19.9564 20.1491C17.8291 22.2764 17.8291 25.7345 19.9564 27.8618C21.8218 29.7273 24.7018 29.9564 26.8182 28.56L28.6945 30.4364C27.3964 31.9855 25.7164 33.1745 23.8182 33.7527C19.4327 32.3891 16.1818 27.84 16.1818 22.9091V17.7818L23.8182 14.3891L31.4545 17.7818V22.9091ZM23.8182 27.2727C22.0073 27.2727 20.5455 25.8109 20.5455 24C20.5455 22.1891 22.0073 20.7273 23.8182 20.7273C25.6291 20.7273 27.0909 22.1891 27.0909 24C27.0909 25.8109 25.6291 27.2727 23.8182 27.2727Z" fill="url(#paint0_linear_2872_8624)"/>
</g>
</g>
</g>
<defs>
<linearGradient id="paint0_linear_2872_8624" x1="23.8182" y1="12" x2="23.8182" y2="36" gradientUnits="userSpaceOnUse">
<stop stop-color="#FF8F8F"/>
<stop offset="1" stop-color="#FF5F5F"/>
</linearGradient>
</defs>
</svg>
