<svg width="48" height="48" viewBox="0 0 48 48" fill="none" xmlns="http://www.w3.org/2000/svg">
<g id="div.flex">
<rect width="48" height="48" rx="8" fill="#0F0F0F"/>
<path id="Vector" d="M33 21C31.764 21 30.72 21.744 30.252 22.8H26.748C26.28 21.744 25.236 21 24 21C22.764 21 21.72 21.744 21.252 22.8H17.748C17.28 21.744 16.236 21 15 21C13.344 21 12 22.344 12 24C12 25.656 13.344 27 15 27C16.236 27 17.28 26.256 17.748 25.2H21.252C21.72 26.256 22.764 27 24 27C25.236 27 26.28 26.256 26.748 25.2H30.252C30.72 26.256 31.764 27 33 27C34.656 27 36 25.656 36 24C36 22.344 34.656 21 33 21Z" fill="#FFF281"/>
</g>
</svg>
