<svg width="49" height="48" viewBox="0 0 49 48" fill="none" xmlns="http://www.w3.org/2000/svg">
<g id="div.flex">
<rect x="0.979996" width="48" height="48" rx="8" fill="#0F0F0F"/>
<path id="Vector" d="M33.0196 33.2454H35.9141V35.6575H28.6779V28.4213H31.09V31.7138C33.297 29.9409 34.7081 27.2394 34.7081 24.2002C34.7081 19.2917 31.0176 15.2273 26.2659 14.6364V12.2002C32.3563 12.8032 37.1201 17.9409 37.1201 24.2002C37.1201 27.8062 35.5282 31.0384 33.0196 33.2454ZM15.4116 24.2002C15.4116 21.161 16.8226 18.4474 19.0297 16.6866V19.9791H21.4417V12.7429H14.2056V15.155H17.1C14.5915 17.362 12.9995 20.5942 12.9995 24.2002C12.9995 30.4595 17.7633 35.5972 23.8538 36.2002V33.764C19.102 33.1731 15.4116 29.1087 15.4116 24.2002ZM30.1734 19.5087L23.3473 26.3349L19.9342 22.9218L18.2337 24.6223L23.3473 29.7359L31.8739 21.2092L30.1734 19.5087Z" fill="url(#paint0_linear_2872_8395)"/>
</g>
<defs>
<linearGradient id="paint0_linear_2872_8395" x1="25.0598" y1="12.2002" x2="25.0598" y2="36.2002" gradientUnits="userSpaceOnUse">
<stop stop-color="#BBB0DB"/>
<stop offset="1" stop-color="#9578EB"/>
</linearGradient>
</defs>
</svg>
