<svg width="14" height="14" viewBox="0 0 14 14" fill="none" xmlns="http://www.w3.org/2000/svg">
<path id="Vector" d="M7.24115 4.29222H6.20104V8.4527L9.49475 10.4289L10.0148 9.57603L7.24115 7.93264V4.29222ZM10.5952 0L13.7897 2.66617L12.9022 3.73056L9.70554 1.06578L10.5952 0ZM3.19371 0L4.08266 1.06508L0.887415 3.73056L-0.000152588 2.66548L3.19371 0ZM6.89445 1.51857C3.44819 1.51857 0.653736 4.31303 0.653736 7.75929C0.653736 11.2055 3.44819 14 6.89445 14C10.3407 14 13.1352 11.2055 13.1352 7.75929C13.1352 4.31303 10.3407 1.51857 6.89445 1.51857ZM6.89445 12.6132C4.21788 12.6132 2.04056 10.4359 2.04056 7.75929C2.04056 5.08271 4.21788 2.9054 6.89445 2.9054C9.57102 2.9054 11.7483 5.08271 11.7483 7.75929C11.7483 10.4359 9.57102 12.6132 6.89445 12.6132Z" fill="black"/>
</svg>
