<svg width="36" height="36" viewBox="0 0 36 36" fill="none" xmlns="http://www.w3.org/2000/svg">
<g id="SVG">
<path id="Vector" d="M25.5827 24.8205C23.6403 24.8205 22.4173 25.4248 21.3381 25.9716C20.4029 26.4464 19.6403 26.8349 18.3885 26.8349C17.0935 26.8349 16.3741 26.4752 15.4388 25.9716C14.3597 25.4248 13.1799 24.8205 11.1942 24.8205C9.20863 24.8205 8.02878 25.4248 6.94964 25.9716C6.01439 26.4464 5.26619 26.8349 4 26.8349V29.6406C5.94245 29.6406 7.16547 29.0363 8.2446 28.4895C9.17986 28.0147 9.92806 27.6262 11.1942 27.6262C12.4604 27.6262 13.2086 27.9859 14.1439 28.4895C15.223 29.0363 16.4029 29.6406 18.3885 29.6406C20.3741 29.6406 21.554 29.0363 22.6331 28.4895C23.5683 28.0147 24.3309 27.6262 25.5827 27.6262C26.8777 27.6262 27.5971 27.9859 28.5324 28.4895C29.6115 29.0363 30.8058 29.6406 32.777 29.6406V26.8349C31.482 26.8349 30.7626 26.4752 29.8273 25.9716C28.7482 25.4248 27.5252 24.8205 25.5827 24.8205ZM25.5827 18.4176C23.6403 18.4176 22.4173 19.0363 21.3381 19.5687C20.4029 20.0291 19.6403 20.432 18.3885 20.432C17.0935 20.432 16.3741 20.0723 15.4388 19.5687C14.3597 19.0219 13.1799 18.4176 11.1942 18.4176C9.20863 18.4176 8.02878 19.0363 6.94964 19.5687C6.01439 20.0291 5.26619 20.432 4 20.432V23.2377C5.94245 23.2377 7.16547 22.619 8.2446 22.0867C9.17986 21.5831 9.89928 21.2234 11.1942 21.2234C12.4892 21.2234 13.2086 21.5831 14.1439 22.0867C15.223 22.6334 16.4029 23.2377 18.3885 23.2377C20.3741 23.2377 21.554 22.619 22.6331 22.0867C23.5683 21.5831 24.2878 21.2234 25.5827 21.2234C26.8777 21.2234 27.5971 21.5831 28.5324 22.0867C29.6115 22.6334 30.8058 23.2377 32.777 23.2377V20.432C31.482 20.432 30.7626 20.0723 29.8273 19.5687C28.7482 19.0219 27.5252 18.4176 25.5827 18.4176ZM29.8273 6.7917C28.7482 6.24494 27.554 5.64062 25.5827 5.64062C23.6115 5.64062 22.4173 6.24494 21.3381 6.7917C20.4029 7.25214 19.6403 7.65501 18.3885 7.65501C17.0935 7.65501 16.3741 7.2953 15.4388 6.7917C14.3597 6.25933 13.1799 5.64062 11.1942 5.64062C9.20863 5.64062 8.02878 6.24494 6.94964 6.7917C6.01439 7.26652 5.26619 7.65501 4 7.65501V10.432C5.94245 10.432 7.16547 9.81329 8.2446 9.28091C9.17986 8.80609 9.92806 8.4176 11.1942 8.4176C12.4604 8.4176 13.2086 8.77732 14.1439 9.28091C15.223 9.82768 16.4029 10.432 18.3885 10.432C20.3741 10.432 21.554 9.81329 22.6331 9.28091C23.5683 8.82048 24.3309 8.4176 25.5827 8.4176C26.8777 8.4176 27.5971 8.77732 28.5324 9.28091C29.6115 9.82768 30.8058 10.432 32.777 10.432V7.62624C31.482 7.62624 30.7626 7.26652 29.8273 6.7917ZM25.5827 12.0147C23.6403 12.0147 22.4173 12.6334 21.3381 13.1658C20.4029 13.6694 19.6835 14.0291 18.3885 14.0291C17.0935 14.0291 16.3741 13.6694 15.4388 13.1658C14.3597 12.619 13.1799 12.0147 11.1942 12.0147C9.20863 12.0147 8.02878 12.6334 6.94964 13.1658C6.01439 13.6694 5.29496 14.0291 4 14.0291V16.8349C5.94245 16.8349 7.16547 16.2162 8.2446 15.6838C9.17986 15.2234 9.94245 14.8205 11.1942 14.8205C12.446 14.8205 13.2086 15.1802 14.1439 15.6838C15.223 16.2306 16.4029 16.8349 18.3885 16.8349C20.3741 16.8349 21.554 16.2162 22.6331 15.6838C23.5683 15.2234 24.3309 14.8205 25.5827 14.8205C26.8777 14.8205 27.5971 15.1802 28.5324 15.6838C29.6115 16.2306 30.8058 16.8349 32.777 16.8349V14.0291C31.482 14.0291 30.7626 13.6694 29.8273 13.1658C28.7482 12.619 27.5252 12.0147 25.5827 12.0147Z" fill="url(#paint0_linear_2872_8414)"/>
</g>
<defs>
<linearGradient id="paint0_linear_2872_8414" x1="18.3885" y1="5.64062" x2="18.3885" y2="29.6406" gradientUnits="userSpaceOnUse">
<stop stop-color="#BBB0DB"/>
<stop offset="1" stop-color="#9578EB"/>
</linearGradient>
</defs>
</svg>
