<svg width="29" height="29" viewBox="0 0 29 29" fill="none" xmlns="http://www.w3.org/2000/svg">
<g id="Thumbs up down" clip-path="url(#clip0_2872_8380)">
<path id="Vector" d="M14.4995 7.61914C14.4995 6.97747 13.9745 6.45247 13.3328 6.45247H7.28951L8.05951 2.74247L8.08284 2.47414C8.08284 2.11247 7.93118 1.78581 7.69784 1.54081L6.77618 0.619141L1.01285 6.38247C0.697845 6.69747 0.499512 7.14081 0.499512 7.61914V15.2025C0.499512 16.1708 1.28118 16.9525 2.24951 16.9525H10.1245C10.8478 16.9525 11.4662 16.5091 11.7345 15.8908L14.3712 9.71914C14.4528 9.52081 14.4995 9.29914 14.4995 9.07747V7.61914ZM12.1662 8.93747L9.73951 14.6191H2.83284V7.86414L5.08451 5.61247L4.41951 8.78581H12.1662V8.93747ZM26.7495 12.2858H18.8745C18.1512 12.2858 17.5328 12.7291 17.2645 13.3475L14.6278 19.5191C14.5462 19.7175 14.4995 19.9391 14.4995 20.1608V21.6191C14.4995 22.2608 15.0245 22.7858 15.6662 22.7858H21.7095L20.9395 26.4958L20.9162 26.7758C20.9162 27.1375 21.0678 27.4641 21.3012 27.7091L22.2228 28.6191L27.9862 22.8558C28.3012 22.5408 28.4995 22.0975 28.4995 21.6191V14.0358C28.4995 13.0675 27.7178 12.2858 26.7495 12.2858ZM26.1662 21.3741L23.9145 23.6258L24.5795 20.4525H16.8328V20.3008L19.2595 14.6191H26.1662V21.3741Z" fill="url(#paint0_linear_2872_8380)"/>
</g>
<defs>
<linearGradient id="paint0_linear_2872_8380" x1="14.4995" y1="0.619141" x2="14.4995" y2="28.6191" gradientUnits="userSpaceOnUse">
<stop stop-color="#BBB0DB"/>
<stop offset="1" stop-color="#9578EB"/>
</linearGradient>
<clipPath id="clip0_2872_8380">
<rect width="28" height="28" fill="white" transform="translate(0.499512 0.619141)"/>
</clipPath>
</defs>
</svg>
