<svg width="40" height="33" viewBox="0 0 40 33" fill="none" xmlns="http://www.w3.org/2000/svg">
<path id="Vector" d="M36.0951 0.5H4.05951C2.10178 0.5 0.5 2.10178 0.5 4.05951V11.1607H4.05951V4.02392H36.0951V28.9939H4.05951V21.8393H0.5V28.9761C0.5 30.9338 2.10178 32.5 4.05951 32.5H36.0951C38.0528 32.5 39.6546 30.9338 39.6546 28.9761V4.05951C39.6546 2.08398 38.0528 0.5 36.0951 0.5ZM18.2976 23.619L25.4166 16.5L18.2976 9.38098V14.7202H0.5V18.2798H18.2976V23.619ZM36.0951 0.5H4.05951C2.10178 0.5 0.5 2.10178 0.5 4.05951V11.1607H4.05951V4.02392H36.0951V28.9939H4.05951V21.8393H0.5V28.9761C0.5 30.9338 2.10178 32.5 4.05951 32.5H36.0951C38.0528 32.5 39.6546 30.9338 39.6546 28.9761V4.05951C39.6546 2.08398 38.0528 0.5 36.0951 0.5ZM18.2976 23.619L25.4166 16.5L18.2976 9.38098V14.7202H0.5V18.2798H18.2976V23.619Z" fill="#BBB0DB"/>
</svg>
