<svg width="36" height="37" viewBox="0 0 36 37" fill="none" xmlns="http://www.w3.org/2000/svg">
<g id="Hot tub" clip-path="url(#clip0_1622_390)">
<path id="Vector" d="M10.5 12.5C12.1569 12.5 13.5 11.1569 13.5 9.5C13.5 7.84315 12.1569 6.5 10.5 6.5C8.84315 6.5 7.5 7.84315 7.5 9.5C7.5 11.1569 8.84315 12.5 10.5 12.5Z" fill="#BBB0DB" />
<path id="Vector_2" d="M19.2533 20.9868C18.7026 20.5961 18.2053 20.1697 17.7967 19.7079L15.3099 16.9546C14.9724 16.5816 14.5461 16.2796 14.0842 16.0664C13.5691 15.8178 12.9829 15.6579 12.3789 15.6579H12.3257C10.123 15.6579 8.32895 17.452 8.32895 19.6546V20.9868H3V35.1974C3 37.1513 4.59868 38.75 6.55263 38.75H34.9737C36.9276 38.75 38.5263 37.1513 38.5263 35.1974V20.9868H19.2533ZM11.8816 35.1974H8.32895V24.5395H11.8816V35.1974ZM18.9868 35.1974H15.4342V24.5395H18.9868V35.1974ZM26.0921 35.1974H22.5395V24.5395H26.0921V35.1974ZM33.1974 35.1974H29.6447V24.5395H33.1974V35.1974ZM30.3908 12.4783C31.4033 13.5796 31.8474 14.9829 31.5809 16.3862L31.3855 17.4342H34.7783L34.8849 16.6704C35.2579 14.2546 34.4053 11.8566 32.5757 10.0803L32.4513 9.95592C31.4388 8.85461 30.9947 7.45132 31.2612 6.04803L31.4211 5H28.0638L27.9572 5.76382C27.602 8.17961 28.4368 10.5776 30.2664 12.3717L30.3908 12.4783ZM23.2855 12.4783C24.298 13.5796 24.7421 14.9829 24.4757 16.3862L24.2803 17.4342H27.673L27.7796 16.6704C28.1526 14.2546 27.3 11.8566 25.4704 10.0803L25.3461 9.95592C24.3336 8.85461 23.8895 7.45132 24.1559 6.04803L24.3158 5H20.9586L20.852 5.76382C20.4967 8.17961 21.3316 10.5776 23.1612 12.3717L23.2855 12.4783Z" fill="#BBB0DB" />
</g>
<defs>
<clipPath id="clip0_1622_390">
<rect width="36" height="36" fill="white" transform="translate(0 0.5)"/>
</clipPath>
</defs>
</svg>
