<svg width="35" height="33" viewBox="0 0 35 33" fill="none" xmlns="http://www.w3.org/2000/svg">
<path id="Vector" d="M15.9105 15.6579C15.3884 15.2874 14.9168 14.8832 14.5295 14.4453L12.1716 11.8347C11.8516 11.4811 11.4474 11.1947 11.0095 10.9926C10.5211 10.7568 9.96526 10.6053 9.39263 10.6053H9.3421C7.25368 10.6053 5.55263 12.3063 5.55263 14.3947V15.6579H0.5V29.1316C0.5 30.9842 2.01579 32.5 3.86842 32.5H30.8158C32.6684 32.5 34.1842 30.9842 34.1842 29.1316V15.6579H15.9105ZM8.92105 29.1316H5.55263V19.0263H8.92105V29.1316ZM15.6579 29.1316H12.2895V19.0263H15.6579V29.1316ZM22.3947 29.1316H19.0263V19.0263H22.3947V29.1316ZM29.1316 29.1316H25.7632V19.0263H29.1316V29.1316ZM26.4705 7.59053C27.4305 8.63474 27.8516 9.96526 27.5989 11.2958L27.4137 12.2895H30.6305L30.7316 11.5653C31.0853 9.27474 30.2768 7.00105 28.5421 5.31684L28.4242 5.19895C27.4642 4.15474 27.0432 2.82421 27.2958 1.49368L27.4474 0.5H24.2642L24.1632 1.22421C23.8263 3.51474 24.6179 5.78842 26.3526 7.48947L26.4705 7.59053ZM19.7337 7.59053C20.6937 8.63474 21.1147 9.96526 20.8621 11.2958L20.6768 12.2895H23.8937L23.9947 11.5653C24.3484 9.27474 23.54 7.00105 21.8053 5.31684L21.6874 5.19895C20.7274 4.15474 20.3063 2.82421 20.5589 1.49368L20.7105 0.5H17.5274L17.4263 1.22421C17.0895 3.51474 17.8811 5.78842 19.6158 7.48947L19.7337 7.59053Z" fill="#BBB0DB" />
</svg>
