<svg width="37" height="33" viewBox="0 0 37 33" fill="none" xmlns="http://www.w3.org/2000/svg">
<path id="Vector" d="M8.07895 12.9444C3.89158 12.9444 0.5 16.1267 0.5 20.0556C0.5 23.9844 3.89158 27.1667 8.07895 27.1667C12.2663 27.1667 15.6579 23.9844 15.6579 20.0556C15.6579 16.1267 12.2663 12.9444 8.07895 12.9444ZM8.07895 23.6111C5.99474 23.6111 4.28947 22.0111 4.28947 20.0556C4.28947 18.1 5.99474 16.5 8.07895 16.5C10.1632 16.5 11.8684 18.1 11.8684 20.0556C11.8684 22.0111 10.1632 23.6111 8.07895 23.6111ZM23.2558 21.8333C20.1295 21.8333 17.5716 24.2333 17.5716 27.1667C17.5716 30.1 20.1295 32.5 23.2558 32.5C26.3821 32.5 28.94 30.1 28.94 27.1667C28.94 24.2333 26.3821 21.8333 23.2558 21.8333ZM23.2558 28.9444C22.2137 28.9444 21.3611 28.1444 21.3611 27.1667C21.3611 26.1889 22.2137 25.3889 23.2558 25.3889C24.2979 25.3889 25.1505 26.1889 25.1505 27.1667C25.1505 28.1444 24.2979 28.9444 23.2558 28.9444ZM26.0789 0.5C20.3379 0.5 15.6579 4.89111 15.6579 10.2778C15.6579 15.6644 20.3379 20.0556 26.0789 20.0556C31.82 20.0556 36.5 15.6644 36.5 10.2778C36.5 4.89111 31.82 0.5 26.0789 0.5ZM26.0789 16.5C22.4221 16.5 19.4474 13.7089 19.4474 10.2778C19.4474 6.84667 22.4221 4.05556 26.0789 4.05556C29.7358 4.05556 32.7105 6.84667 32.7105 10.2778C32.7105 13.7089 29.7358 16.5 26.0789 16.5Z" fill="#BBB0DB"/>
</svg>
