<svg width="37" height="37" viewBox="0 0 37 37" fill="none" xmlns="http://www.w3.org/2000/svg">
<g clip-path="url(#clip0_1622_383)">
<path d="M18.5 9.5C18.5 8.675 17.825 8 17 8H9.23L10.22 3.23L10.25 2.885C10.25 2.42 10.055 2 9.755 1.685L8.57 0.5L1.16 7.91C0.755 8.315 0.5 8.885 0.5 9.5V19.25C0.5 20.495 1.505 21.5 2.75 21.5H12.875C13.805 21.5 14.6 20.93 14.945 20.135L18.335 12.2C18.44 11.945 18.5 11.66 18.5 11.375V9.5ZM15.5 11.195L12.38 18.5H3.5V9.815L6.395 6.92L5.54 11H15.5V11.195ZM34.25 15.5H24.125C23.195 15.5 22.4 16.07 22.055 16.865L18.665 24.8C18.56 25.055 18.5 25.34 18.5 25.625V27.5C18.5 28.325 19.175 29 20 29H27.77L26.78 33.77L26.75 34.13C26.75 34.595 26.945 35.015 27.245 35.33L28.43 36.5L35.84 29.09C36.245 28.685 36.5 28.115 36.5 27.5V17.75C36.5 16.505 35.495 15.5 34.25 15.5ZM33.5 27.185L30.605 30.08L31.46 26H21.5V25.805L24.62 18.5H33.5V27.185Z" fill="#BBB0DB" />
</g>
<defs>
<clipPath id="clip0_1622_383">
<rect width="36" height="36" fill="white" transform="translate(0.5 0.5)"/>
</clipPath>
</defs>
</svg>
